# xmcd
#
# Track frame offsets:
#   150
#   20614
#   36998
#   72239
#   102712
#   107750
#   133164
#   149474
#   164829
#   194390
#   211273
#   220622
#   236307
#   253717
#   268237
#   296229
#   320087
#
# Disc length: 4403 seconds
#
# Revision: 0
# Processed by: cddbd v1.5.1PL2 Copyright (c) Steve Scherf et al.
# Submitted via: GXTranscoder 2.0.1939
#
DISCID=1b113111
DTITLE=CVBCV - VCB
DYEAR=2005
DGENRE=VCBVC
TTITLE0=VCBFFG
TTITLE1=CVB
TTITLE2=CVBC
TTITLE3=WWWW
TTITLE4=WSD
TTITLE5=CB
TTITLE6=CBC
TTITLE7=CB
TTITLE8=CBCV
TTITLE9=CBC
TTITLE10=123
TTITLE11=33
TTITLE12=CBCB
TTITLE13=CBCB
TTITLE14=CVBCV
TTITLE15=CBCVB
TTITLE16=BB
EXTD=BVCBCVBVCBCV
EXTT0=
EXTT1=
EXTT2=
EXTT3=
EXTT4=
EXTT5=
EXTT6=
EXTT7=
EXTT8=
EXTT9=
EXTT10=
EXTT11=
EXTT12=
EXTT13=
EXTT14=
EXTT15=
EXTT16=
PLAYORDER=
